<svg id="Слой_1" data-name="Слой 1" xmlns="http://www.w3.org/2000/svg" viewBox="0 0 250.71 134.36">
  <defs>
    <style>
      .cls-1, .cls-3, .cls-5, .cls-6, .cls-7, .cls-8 {
        fill: none;
      }

      .cls-1 {
        stroke: #b9433b;
      }

      .cls-1, .cls-3 {
        stroke-linecap: round;
        stroke-linejoin: round;
      }

      .cls-1, .cls-3, .cls-8 {
        stroke-width: 0.75px;
      }

      .cls-2 {
        fill: #b9433b;
        opacity: 0.25;
      }

      .cls-3 {
        stroke: #4f5981;
      }

      .cls-4 {
        fill: #d7dff2;
        opacity: 0.5;
      }

      .cls-5 {
        stroke: gray;
      }

      .cls-10, .cls-5, .cls-6, .cls-7, .cls-8 {
        stroke-miterlimit: 10;
      }

      .cls-5, .cls-6 {
        stroke-width: 0.5px;
      }

      .cls-6 {
        stroke: #666;
      }

      .cls-10, .cls-7, .cls-8 {
        stroke: #000;
      }

      .cls-7 {
        stroke-width: 1.2px;
      }

      .cls-12, .cls-15, .cls-19, .cls-9 {
        font-size: 9px;
      }

      .cls-12, .cls-16, .cls-18, .cls-9 {
        font-family: TeXGyrePagella-Regular, TeX Gyre Pagella;
      }

      .cls-10 {
        fill: #fff;
        stroke-width: 0.25px;
      }

      .cls-11, .cls-17 {
        font-size: 10px;
      }

      .cls-11, .cls-13, .cls-15, .cls-17, .cls-19 {
        font-family: TeXGyrePagella-Italic, TeX Gyre Pagella;
        font-style: italic;
      }

      .cls-11 {
        letter-spacing: -0.05em;
      }

      .cls-12, .cls-15 {
        letter-spacing: -0.03em;
      }

      .cls-14, .cls-16 {
        font-size: 7px;
        letter-spacing: -0.02em;
      }

      .cls-16, .cls-18 {
        font-style: normal;
      }

      .cls-17 {
        letter-spacing: -0.03em;
      }

      .cls-19 {
        letter-spacing: -0.03em;
      }
    </style>
  </defs>
  <polyline class="cls-1" points="20.54 18.14 22.62 18.14 24.66 18.14 26.74 18.14 28.77 18.14 30.86 18.14 32.94 18.14 34.98 18.14 37.06 18.14 39.1 18.14 41.18 18.14 43.22 18.14 45.3 18.14 47.34 18.14 49.42 18.14 51.46 18.14 53.54 18.14 55.58 18.14 57.66 18.14 59.7 18.14 61.78 18.14 63.82 18.14 65.9 18.14 67.94 18.14 70.02 18.14 72.1 18.14 74.14 18.14 76.22 18.14 78.26 18.14 80.34 18.14 82.38 18.14 84.46 18.14 86.5 18.14 88.58 18.14 90.62 18.14 92.7 18.14 94.74 18.14 96.82 18.14 98.86 18.14 100.94 18.14 102.98 18.14 105.06 18.14 107.15 18.14 109.18 18.14 111.27 18.14 113.3 18.14 115.39 18.14 117.42 18.14 119.5 18.14 121.54 18.14 123.63 18.14 125.66 18.2 127.74 18.32 129.78 18.45 131.86 18.63 133.9 18.83 135.98 19.08 138.02 19.32 140.1 19.64 142.14 19.95 144.22 20.28 146.31 20.66 148.34 21.04 150.43 21.47 152.46 21.89 154.55 22.36 156.58 22.83 158.67 23.32 160.7 23.81 162.79 24.35 164.82 24.89 166.91 25.45 168.94 26.03 171.03 26.61 173.06 27.19 175.15 27.79 177.18 28.33 179.26 28.82 181.3 29.27 183.38 29.69 185.47 30.07 187.5 30.43 189.59 30.72 191.62 31.01 193.71 31.26 195.74 31.46 197.83 31.66 199.86 31.82 201.95 31.93 203.98 32.04 206.07 32.1 208.1 32.15 210.19 32.17 212.22 32.2 214.31 32.17 216.34 32.13 218.43 32.06 220.46 31.97 222.55 31.86 224.63 31.73"/>
  <polygon class="cls-2" points="224.63 126.99 173.61 72.56 224.63 72.56 224.63 126.99"/>
  <polyline class="cls-3" points="20.54 18.14 22.62 18.14 24.66 18.14 26.74 18.14 28.77 18.14 30.86 18.14 32.94 18.14 34.98 18.14 37.06 18.14 39.1 18.14 41.18 18.14 43.22 18.14 45.3 18.14 47.34 18.14 49.42 18.14 51.46 18.14 53.54 18.14 55.58 18.14 57.66 18.14 59.7 18.14 61.78 18.14 63.82 18.14 65.9 18.14 67.94 18.14 70.02 18.14 72.1 18.14 74.14 18.14 76.22 18.14 78.26 18.14 80.34 18.14 82.38 18.14 84.46 18.14 86.5 18.14 88.58 18.14 90.62 18.14 92.7 18.14 94.74 18.14 96.82 18.14 98.86 18.14 100.94 18.14 102.98 18.14 105.06 18.14 107.15 18.14 109.18 18.14 111.27 18.14 113.3 18.14 115.39 18.14 117.42 18.14 119.5 18.14 121.54 18.14 123.63 18.16 125.66 18.2 127.74 18.32 129.78 18.45 131.86 18.63 133.9 18.83 135.98 19.08 138.02 19.32 140.1 19.64 142.14 19.95 144.22 20.28 146.31 20.66 148.34 21.04 150.43 21.47 152.46 21.89 154.55 22.36 156.58 22.83 158.67 23.32 160.7 23.82 162.79 24.35 164.82 24.89 166.91 25.45 168.94 26.03 171.03 26.61 173.06 27.19 175.15 27.82 177.18 28.45 179.26 29.07 181.3 29.72 183.38 30.37 185.47 31.04 187.5 31.73 189.59 32.43 191.62 33.12 193.71 33.81 195.74 34.53 197.83 35.27 199.86 36 201.95 36.74 203.98 37.48 206.07 38.24 208.1 39 210.19 39.78 212.22 40.56 214.31 41.35 216.34 42.13 218.43 42.94 220.46 43.72 222.55 44.55 224.63 45.35"/>
  <polygon class="cls-4" points="20.54 72.56 20.54 18.14 122.58 18.14 173.61 72 20.54 72.56"/>
  <line class="cls-5" x1="122.58" y1="18.14" x2="122.58" y2="73.7"/>
  <line class="cls-6" x1="224.63" y1="126.42" x2="20.54" y2="126.42"/>
  <line class="cls-6" x1="122.58" y1="18.14" x2="20.54" y2="18.14"/>
  <polyline class="cls-7" points="20.54 18.14 122.58 18.14 224.63 126.99"/>
  <g>
    <line class="cls-8" x1="18.27" y1="72.56" x2="245.39" y2="72.56"/>
    <polygon points="244.2 74.31 250.71 72.56 244.2 70.82 244.2 74.31"/>
  </g>
  <g>
    <line class="cls-8" x1="20.54" y1="6.45" x2="20.54" y2="134.36"/>
    <polygon points="18.79 7.63 20.54 1.13 22.28 7.63 18.79 7.63"/>
  </g>
  <text class="cls-9" transform="translate(10.59 75.03) scale(0.95 1)">0</text>
  <circle class="cls-10" cx="20.54" cy="72.56" r="1.28"/>
  <circle class="cls-10" cx="122.58" cy="72.56" r="1.28"/>
  <circle class="cls-10" cx="122.58" cy="18.14" r="1.28"/>
  <circle class="cls-10" cx="20.54" cy="18.14" r="1.28"/>
  <circle class="cls-10" cx="173.61" cy="72.56" r="1.28"/>
  <text class="cls-11" transform="translate(246.98 83.58) scale(0.95 1)">t</text>
  <text class="cls-12" transform="translate(211.78 82.84) scale(0.95 1)">2<tspan class="cls-13" x="4.27" y="0">t</tspan><tspan class="cls-14" x="7.05" y="2">0</tspan></text>
  <text class="cls-12" transform="translate(157.61 82.84) scale(0.95 1)">1,5<tspan class="cls-13" x="10.57" y="0">t</tspan><tspan class="cls-14" x="13.35" y="2">0</tspan></text>
  <text class="cls-15" transform="translate(119.6 82.84) scale(0.95 1)">t<tspan class="cls-16" x="2.77" y="2">0</tspan></text>
  <text class="cls-17" transform="translate(2.04 8.46)">v<tspan class="cls-18" x="4.75" y="0">(</tspan><tspan x="7.83" y="0">t</tspan><tspan class="cls-18" x="10.91" y="0">)</tspan></text>
  <circle class="cls-10" cx="20.54" cy="126.42" r="1.28"/>
  <text class="cls-15" transform="translate(7.48 20.8) scale(0.95 1)">v<tspan class="cls-16" x="4.27" y="2">0</tspan></text>
  <text class="cls-15" transform="translate(4.85 129.65) scale(0.95 1)">-v<tspan class="cls-16" x="7.05" y="2">0</tspan></text>
  <text class="cls-19" transform="translate(24.79 12.91)">A</text>
  <text class="cls-19" transform="translate(125.42 13.54)">B</text>
  <text class="cls-19" transform="translate(228.88 124.88)">D</text>
  <line class="cls-6" x1="224.63" y1="72.81" x2="224.63" y2="127.24"/>
  <circle class="cls-10" cx="224.63" cy="72.56" r="1.28"/>
  <circle class="cls-10" cx="224.63" cy="126.99" r="1.28"/>
  <text class="cls-19" transform="translate(172.19 68.81)">C</text>
  <text class="cls-19" transform="translate(228.88 68.81)">E</text>
</svg>
