<svg id="Слой_1" data-name="Слой 1" xmlns="http://www.w3.org/2000/svg" viewBox="0 0 273.15 144.07">
  <defs>
    <style>
      .cls-1 {
        fill: #d7dff2;
      }

      .cls-19, .cls-2, .cls-3, .cls-4, .cls-5 {
        fill: none;
      }

      .cls-2 {
        stroke: #666;
      }

      .cls-10, .cls-19, .cls-2, .cls-3, .cls-4, .cls-5, .cls-7 {
        stroke-miterlimit: 10;
      }

      .cls-19, .cls-2, .cls-3, .cls-7 {
        stroke-width: 0.5px;
      }

      .cls-3 {
        stroke: gray;
      }

      .cls-10, .cls-19, .cls-4, .cls-5, .cls-7 {
        stroke: #000;
      }

      .cls-4 {
        stroke-width: 1.2px;
      }

      .cls-10, .cls-5 {
        stroke-width: 0.75px;
      }

      .cls-16, .cls-6 {
        font-size: 9px;
      }

      .cls-12, .cls-16, .cls-6, .cls-8 {
        font-family: TeXGyrePagella-Regular, TeX Gyre Pagella;
      }

      .cls-7 {
        fill: #fff;
      }

      .cls-11, .cls-17, .cls-8, .cls-9 {
        font-size: 10px;
        letter-spacing: -0.03em;
      }

      .cls-17, .cls-9 {
        font-family: TeXGyrePagella-Italic, TeX Gyre Pagella;
        font-style: italic;
      }

      .cls-11, .cls-18 {
        font-family: STIXTwoText-Regular, STIX Two Text;
      }

      .cls-13 {
        letter-spacing: 0.03em;
      }

      .cls-14 {
        letter-spacing: -0.05em;
      }

      .cls-15 {
        fill: #4f5981;
      }

      .cls-16 {
        letter-spacing: -0.03em;
      }

      .cls-17 {
        fill: #000105;
      }

      .cls-18 {
        font-style: normal;
      }
    </style>
  </defs>
  <polygon class="cls-1" points="238.57 128.76 59.98 128.76 59.98 117.42 238.57 26.71 238.57 128.76"/>
  <line class="cls-2" x1="238.57" y1="26.71" x2="238.57" y2="128.76"/>
  <line class="cls-3" x1="59.98" y1="117.42" x2="59.98" y2="128.76"/>
  <line class="cls-2" x1="59.98" y1="117.42" x2="34.47" y2="117.42"/>
  <line class="cls-2" x1="238.57" y1="26.71" x2="34.47" y2="26.71"/>
  <line class="cls-4" x1="59.98" y1="117.42" x2="238.57" y2="26.71"/>
  <g>
    <line class="cls-5" x1="34.47" y1="6.52" x2="34.47" y2="131.59"/>
    <polygon points="32.73 7.7 34.47 1.2 36.22 7.7 32.73 7.7"/>
  </g>
  <text class="cls-6" transform="translate(32.34 139.55) scale(0.95 1)">0</text>
  <circle class="cls-7" cx="34.47" cy="117.42" r="1.42"/>
  <circle class="cls-7" cx="238.57" cy="26.71" r="1.42"/>
  <circle class="cls-7" cx="34.47" cy="26.71" r="1.42"/>
  <circle class="cls-7" cx="59.98" cy="117.42" r="1.42"/>
  <g>
    <g>
      <text class="cls-8" transform="translate(2 8.46)">1</text>
      <text class="cls-9" transform="translate(2 18.73)">v</text>
      <line class="cls-10" x1="0.25" y1="11.16" x2="8.75" y2="11.16"/>
    </g>
    <text class="cls-11" transform="translate(8.5 13.56)"> <tspan class="cls-12" x="2.1" y="0">,</tspan><tspan class="cls-13" x="4.35" y="0"> </tspan><tspan x="6.95" y="0">с</tspan><tspan class="cls-14" x="11.16" y="0">/м</tspan></text>
  </g>
  <rect class="cls-15" x="142.19" y="75.61" width="11.34" height="53.15"/>
  <text class="cls-16" transform="translate(18.55 120.02) scale(0.95 1)">0,5</text>
  <text class="cls-16" transform="translate(18.55 29.31) scale(0.95 1)">4,5</text>
  <text class="cls-17" transform="translate(252.71 140.34)">r<tspan class="cls-18" x="3.64" y="0">, км</tspan></text>
  <text class="cls-16" transform="translate(233.44 139.55) scale(0.95 1)">9,0</text>
  <text class="cls-16" transform="translate(54.86 139.55) scale(0.95 1)">1,0</text>
  <g>
    <line class="cls-19" x1="133.97" y1="49.39" x2="138.04" y2="49.39"/>
    <polygon points="137.05 50.84 142.47 49.39 137.05 47.94 137.05 50.84"/>
  </g>
  <g>
    <line class="cls-19" x1="161.75" y1="49.39" x2="157.67" y2="49.39"/>
    <polygon points="158.66 47.94 153.24 49.39 158.66 50.84 158.66 47.94"/>
  </g>
  <line class="cls-2" x1="142.19" y1="47.26" x2="142.19" y2="128.76"/>
  <line class="cls-2" x1="153.53" y1="47.26" x2="153.53" y2="128.76"/>
  <line class="cls-2" x1="153.53" y1="75.61" x2="34.47" y2="75.61"/>
  <g>
    <line class="cls-5" x1="32.2" y1="128.76" x2="267.83" y2="128.76"/>
    <polygon points="266.64 130.5 273.15 128.76 266.64 127.02 266.64 130.5"/>
  </g>
  <circle class="cls-7" cx="34.47" cy="128.76" r="1.42"/>
  <circle class="cls-7" cx="59.98" cy="128.76" r="1.42"/>
  <circle class="cls-7" cx="238.57" cy="128.76" r="1.42"/>
  <circle class="cls-7" cx="34.47" cy="75.61" r="1.42"/>
  <text class="cls-17" transform="translate(143.09 45.3)">Δr</text>
  <line class="cls-19" x1="132.27" y1="49.39" x2="163.45" y2="49.39"/>
  <g>
    <text class="cls-8" transform="translate(21.81 72.85)">1</text>
    <text class="cls-9" transform="translate(21.81 83.13)">v</text>
    <line class="cls-10" x1="20.05" y1="75.55" x2="28.56" y2="75.55"/>
  </g>
</svg>
